<svg class="logo" xmlns="http://www.w3.org/2000/svg" viewBox="0 0 1620.26 431.47">
    <g>
        <rect x="168.48" y="12.96" width="25.92" height="12.96" fill="#0a7f3a" />
        <rect x="142.56" y="25.92" width="25.92" height="12.96" fill="#0a7f3a" />
        <rect x="116.64" y="38.88" width="25.92" height="12.96" fill="#0a7f3a" />
        <rect x="90.72" y="51.84" width="25.92" height="12.96" fill="#0a7f3a" />
        <rect x="77.76" y="64.8" width="12.96" height="12.96" fill="#0a7f3a" />
        <rect x="51.84" y="77.76" width="25.92" height="12.96" fill="#0a7f3a" />
        <rect x="25.92" y="90.72" width="25.92" height="12.96" fill="#0a7f3a" />
        <rect x="12.96" y="103.68" width="12.96" height="194.4" fill="#0a7f3a" />
        <rect x="103.68" y="168.48" width="12.96" height="207.36" fill="#0a7f3a" />
    </g>
    <g>
        <rect x="259.2" y="64.8" width="12.96" height="220.32" fill="#a5ea41" />
        <polygon
            points="349.92 116.64 349.92 324 336.96 324 336.96 336.96 349.92 336.96 362.88 336.96 362.88 116.64 349.92 116.64"
            fill="#a5ea41" />
        <rect x="311.04" y="336.96" width="25.92" height="12.96" fill="#a5ea41" />
        <rect x="298.08" y="349.92" width="12.96" height="12.96" fill="#a5ea41" />
        <rect x="272.16" y="362.88" width="25.92" height="12.96" fill="#a5ea41" />
        <rect x="233.28" y="375.84" width="38.88" height="12.96" fill="#a5ea41" />
        <rect x="207.36" y="388.8" width="25.92" height="12.96" fill="#a5ea41" />
        <polygon
            points="168.48 401.76 168.48 414.72 181.44 414.72 207.36 414.72 207.36 401.76 181.44 401.76 168.48 401.76"
            fill="#a5ea41" />
    </g>
    <g>
        <rect x="168.48" width="25.92" height="12.96" fill="#18ae4e" />
        <rect x="142.56" y="12.96" width="25.92" height="12.96" fill="#18ae4e" />
        <rect x="116.64" y="25.92" width="25.92" height="12.96" fill="#18ae4e" />
        <rect x="90.72" y="38.88" width="25.92" height="12.96" fill="#18ae4e" />
        <rect x="77.76" y="51.84" width="12.96" height="12.96" fill="#18ae4e" />
        <rect x="51.84" y="64.8" width="25.92" height="12.96" fill="#18ae4e" />
        <rect x="25.92" y="77.76" width="25.92" height="12.96" fill="#18ae4e" />
        <rect x="12.96" y="90.72" width="12.96" height="12.96" fill="#18ae4e" />
        <rect y="103.68" width="12.96" height="194.4" fill="#18ae4e" />
        <polygon
            points="90.72 168.48 90.72 375.84 103.68 375.84 103.68 168.48 116.64 168.48 116.64 375.84 103.68 375.84 103.68 388.8 116.64 388.8 116.64 401.76 129.6 401.76 129.6 375.84 129.6 168.48 129.6 142.56 90.72 142.56 90.72 168.48"
            fill="#18ae4e" />
        <polygon
            points="272.16 298.08 285.12 298.08 285.12 64.8 272.16 64.8 272.16 285.12 259.2 285.12 259.2 64.8 272.16 64.8 272.16 51.84 259.2 51.84 259.2 38.88 246.24 38.88 246.24 298.08 259.2 298.08 272.16 298.08"
            fill="#18ae4e" />
        <polygon
            points="207.36 401.76 207.36 388.8 220.32 388.8 233.28 388.8 233.28 375.84 272.16 375.84 272.16 362.88 298.08 362.88 298.08 349.92 311.04 349.92 311.04 336.96 336.96 336.96 336.96 324 349.92 324 349.92 116.64 362.88 116.64 362.88 103.68 324 103.68 324 116.64 311.04 116.64 311.04 311.04 285.12 311.04 285.12 324 246.24 324 246.24 336.96 220.32 336.96 220.32 38.88 220.32 25.92 220.32 12.96 194.4 12.96 194.4 25.92 168.48 25.92 168.48 38.88 155.52 38.88 142.56 38.88 142.56 51.84 116.64 51.84 116.64 64.8 90.72 64.8 90.72 77.76 77.76 77.76 77.76 90.72 51.84 90.72 51.84 103.68 25.92 103.68 25.92 298.08 12.96 298.08 12.96 311.04 51.84 311.04 51.84 298.08 64.8 298.08 64.8 129.6 77.76 129.6 90.72 129.6 90.72 116.64 116.64 116.64 116.64 103.68 142.56 103.68 142.56 90.72 155.52 90.72 155.52 388.8 155.52 401.76 155.52 414.72 168.48 414.72 168.48 401.76 207.36 401.76"
            fill="#18ae4e" />
        <rect x="168.48" y="414.72" width="38.88" height="12.96" fill="#18ae4e" />
        <rect x="207.36" y="401.76" width="25.92" height="12.96" fill="#18ae4e" />
        <rect x="233.28" y="388.8" width="38.88" height="12.96" fill="#18ae4e" />
        <rect x="272.16" y="375.84" width="25.92" height="12.96" fill="#18ae4e" />
        <rect x="298.08" y="362.88" width="12.96" height="12.96" fill="#18ae4e" />
        <rect x="311.04" y="349.92" width="25.92" height="12.96" fill="#18ae4e" />
        <rect x="336.96" y="336.96" width="25.92" height="12.96" fill="#18ae4e" />
        <rect x="362.88" y="116.64" width="12.96" height="220.32" fill="#18ae4e" />
    </g>
    <g>
        <path
            d="M548.24,100.22h37.39V47.5h21.13V214.25h-58.53l-16.95-16.95V116.94l16.95-16.72Zm4.18,92.9h33.21V121.36h-33.21v71.76Z"
            fill="#443232" />
        <path
            d="M619.3,104.4h16.72v-40.18l16.72-16.95h25.32v21.13h-20.9v36h20.9v21.13h-20.9v88.48h-21.13V125.54h-16.72v-21.13Z"
            fill="#443232" />
        <path
            d="M745.18,213.79v-23.92h-37.62l-16.95-16.72v-56.9l16.95-16.95h58.76v118.91l-16.95,16.72h-56.67v-21.13h52.49Zm-33.44-45.06h33.44v-48.31h-33.44v48.31Z"
            fill="#443232" />
        <path
            d="M833.43,213.79v-23.92h-37.62l-16.95-16.72v-56.9l16.95-16.95h58.76v118.91l-16.95,16.72h-56.67v-21.13h52.49Zm-33.44-45.06h33.44v-48.31h-33.44v48.31Z"
            fill="#443232" />
        <path
            d="M942.81,225.63l-7.9-4.18c2.47-6.04,4.45-12.08,5.92-18.11,1.47-6.04,2.82-13.66,4.06-22.88,1.24-9.21,1.86-20.17,1.86-32.86V52.15h59.45v-4.18h18.35V205.89c0,5.88-2.01,10.84-6.04,14.86-4.03,4.02-8.98,6.04-14.86,6.04h-15.79v-18.12h15.79c1.7,0,2.55-.93,2.55-2.79v-35.77h-42.04c-.78,10.07-1.86,18.81-3.25,26.24-1.39,7.43-2.83,13.59-4.3,18.46-1.47,4.88-2.75,8.59-3.83,11.15-1.08,2.55-1.71,3.91-1.86,4.06l-8.13-4.41Zm22.29-155.37v29.5h41.11v-29.5h-41.11Zm41.11,81.52v-33.68h-41.11v33.68h41.11Zm137.26,62.01l-12.31,13.47-31.58-28.33c-5.11,4.95-10.88,9.91-17.3,14.86-6.43,4.95-13.67,9.83-21.71,14.63l-9.52-15.79c7.12-4.18,13.59-8.48,19.39-12.89,5.81-4.41,10.95-8.79,15.44-13.12l-24.85-22.3,12.31-13.47,25.31,22.76c5.88-6.65,10.33-12.46,13.35-17.42,3.02-4.95,4.99-8.44,5.92-10.45v-1.63h-67.35v83.38h-18.35V51.91h89.41v-4.41h18.35v42.73c0,5.89-2.05,10.84-6.16,14.86-4.1,4.03-9.02,6.04-14.75,6.04h-40.64v-18.35h40.64c1.7,0,2.55-.85,2.55-2.55v-19.97h-71.07v55.51h67.35v-3.72h18.35v27.64l-.7,1.63c-.16,.31-.66,1.39-1.51,3.25-.85,1.86-2.21,4.34-4.06,7.43-1.86,3.1-4.22,6.7-7.08,10.8-2.87,4.1-6.39,8.48-10.57,13.12l31.12,27.87Z"
            fill="#443232" />
        <path
            d="M1357.36,85.82c-.31,.31-1.43,1.24-3.37,2.79-1.94,1.55-4.8,3.6-8.59,6.15-3.8,2.55-8.56,5.46-14.28,8.71-5.73,3.25-12.54,6.58-20.44,9.99l67.58,14.86-3.72,17.88-94.99-20.9c-14.09,4.64-30.19,8.9-48.31,12.77-18.12,3.87-38.71,6.89-61.78,9.06l-1.86-18.11c14.4-1.24,27.71-2.9,39.95-4.99,12.23-2.09,23.53-4.37,33.91-6.85l-39.25-8.59,3.95-17.88,72.23,15.79c5.11-1.7,9.83-3.4,14.17-5.11,4.33-1.7,8.28-3.4,11.84-5.11,6.5-2.94,12.15-5.73,16.95-8.36,4.8-2.63,8.83-5.03,12.08-7.2h-124.02c-2.63,3.87-5.77,7.78-9.41,11.73-3.64,3.95-7.7,7.78-12.19,11.5l-11.61-14.4c5.73-4.65,10.57-9.48,14.51-14.52,3.95-5.03,7.12-9.67,9.52-13.93,2.4-4.26,4.6-9.17,6.62-14.75l17.42,5.11c0,.31-.35,1.43-1.04,3.37-.7,1.94-1.74,4.45-3.14,7.55h121.93v-3.25h18.12v23.92l-2.79,2.79Zm-182.08,122.16c.15,0,2.09-.62,5.81-1.86,3.72-1.24,8.17-3.14,13.35-5.69,5.19-2.55,10.57-5.89,16.14-9.99,5.57-4.1,10.22-9.09,13.93-14.98h-43.66v-18.35h49.7v-12.77h18.12v12.77h95.68v-4.18h18.35v53.88c0,5.73-2.01,10.64-6.04,14.75-4.03,4.1-8.98,6.15-14.86,6.15h-28.8v-18.35h28.59c.77,0,1.42-.23,1.96-.7s.81-1.08,.81-1.86v-31.35h-99.4c-2.63,6.04-5.96,11.5-9.99,16.37-4.03,4.88-8.4,9.17-13.12,12.89-4.72,3.72-9.49,6.85-14.28,9.41-4.8,2.55-9.17,4.68-13.12,6.39-3.95,1.7-7.28,2.98-9.99,3.83-2.71,.85-4.22,1.28-4.53,1.28l-4.64-17.65Z"
            fill="#443232" />
        <path
            d="M1400.79,157.59c9.75-1.55,18.77-3.52,27.06-5.92,8.28-2.4,15.91-4.99,22.88-7.78h-46.91v-18.35h81.55c6.35-4.18,11.04-7.7,14.06-10.57,3.02-2.86,4.61-4.37,4.77-4.53l13.48,12.31-2.79,2.79h38.27l-2.55-3.25,13.47-10.45h-53.42V53.77h62.24v-3.95h18.12v41.34c0,5.73-2.01,10.61-6.04,14.63s-8.98,6.04-14.86,6.04h-4.41l10.68,13.7h28.57v18.35h-35.07l37.39,13.47-6.04,17.19-10.68-3.95v36.46c0,5.88-2.05,10.84-6.15,14.86-4.1,4.02-9.02,6.04-14.75,6.04h-58.06v-57.13h60.62v-4.18h7.2l-53.2-19.04,1.39-3.72h-36.54c-7.45,4.65-16.45,9.41-27,14.28-10.55,4.88-22.89,9.1-37,12.66h51.33v-4.18h18.35v40.41c0,5.88-2.05,10.84-6.15,14.86-4.1,4.02-9.02,6.04-14.75,6.04h-58.06v-54.81c-2.17,.46-4.41,.93-6.74,1.39s-4.72,.85-7.2,1.16l-3.02-18.11Zm97.54-66.42c0,5.73-2.01,10.61-6.04,14.63s-8.98,6.04-14.86,6.04h-59.69V53.77h62.24v-3.95h18.35v41.34Zm-62.24,2.32h41.34c1.7,0,2.55-.84,2.55-2.53v-18.84h-43.89v21.37Zm0,116.12h39.71c1.7,0,2.55-.92,2.55-2.75v-17.68h-42.27v20.44Zm92.9-116.12h41.12c1.85,0,2.77-.84,2.77-2.53v-18.84h-43.89v21.37Zm43.2,95.68h-42.04v20.44h39.5c1.69,0,2.54-.92,2.54-2.75v-17.68Z"
            fill="#443232" />
    </g>
    <line x1="641.92" y1="273.34" x2="1493.92" y2="273.34" stroke="#181821" stroke-miterlimit="10" />
    <g>
        <path
            d="M615.62,396.08h-15.15l-16.53-52.12v60.75h-12.68v-99.91h12.68l23.9,76.78,22.64-76.78h12.96v99.91h-12.68v-60.48l-15.14,51.84Z"
            fill="#0a7f3a" />
        <path d="M650.96,392.18h9.75v-74.83h-9.75v-12.68h32.33v12.68h-9.89v74.83h9.89v12.68h-32.33v-12.68Z"
            fill="#0a7f3a" />
        <path d="M703.63,404.86h-12.68v-100.19h12.96l30.8,70.93v-70.93h12.68v100.19h-11.71l-32.05-73.3v73.3Z"
            fill="#0a7f3a" />
        <path d="M810.23,391.9v12.68h-45.04l-10.14-10.17v-89.88h55.18v12.68h-42.5v29.82h42.5v12.68h-42.5v32.19h42.5Z"
            fill="#0a7f3a" />
        <path
            d="M860.12,343.55v-26.2h-29.82v74.83h29.82v-24.8h12.68v27.31l-10.17,10.17h-34.84l-10.17-10.17v-79.85l10.17-10.17h34.84l10.17,10.17v28.71h-12.68Z"
            fill="#0a7f3a" />
        <path
            d="M935.36,392.18v12.68h-14.63l-10.17-10.17v-26.62h-17.56v36.65h-12.68v-99.91h44.87l10.17,10.17v43.06l-10.17,10.03h-1.95v24.11h12.12Zm-12.68-74.69h-29.68v37.9h29.68v-37.9Z"
            fill="#0a7f3a" />
        <path
            d="M997.37,404.86l-5.43-26.75h-31.07l-5.43,26.75h-12.96l19.93-100.05h27.59l20.34,100.05h-12.96Zm-24.39-87.51l-9.62,48.07h25.92l-9.89-48.07h-6.41Z"
            fill="#0a7f3a" />
        <path d="M1017.71,304.81h55.04v12.68h-42.36v34.84h42.36v12.68h-42.36v39.85h-12.68v-100.05Z" fill="#0a7f3a" />
        <path d="M1080.14,304.67h55.18v12.68h-21.18v87.37h-12.68v-87.37h-21.32v-12.68Z" fill="#0a7f3a" />
        <path
            d="M1222.97,337.28v-22.16h-29.82v33.16h32.47l10.03,10.06v36.32l-10.03,10.2h-34.98l-10.17-10.17v-23.27h12.68v20.76h29.82v-31.21h-32.33l-10.17-10.03v-38.32l10.03-10.17h35.12l10.03,10.17v24.66h-12.68Z"
            fill="#0a7f3a" />
        <path d="M1298.35,391.9v12.68h-45.04l-10.14-10.17v-89.88h55.18v12.68h-42.5v29.82h42.5v12.68h-42.5v32.19h42.5Z"
            fill="#0a7f3a" />
        <path
            d="M1360.78,392.18v12.68h-14.63l-10.17-10.17v-26.62h-17.56v36.65h-12.68v-99.91h44.87l10.17,10.17v43.06l-10.17,10.03h-1.95v24.11h12.12Zm-12.68-74.69h-29.68v37.9h29.68v-37.9Z"
            fill="#0a7f3a" />
        <path d="M1381.12,304.67l20.48,87.51h1.67l20.07-87.51h12.96l-23.69,100.19h-20.21l-24.25-100.19h12.96Z"
            fill="#0a7f3a" />
        <path d="M1498.73,391.9v12.68h-45.04l-10.14-10.17v-89.88h55.18v12.68h-42.5v29.82h42.5v12.68h-42.5v32.19h42.5Z"
            fill="#0a7f3a" />
        <path
            d="M1561.15,392.18v12.68h-14.63l-10.17-10.17v-26.62h-17.56v36.65h-12.68v-99.91h44.87l10.17,10.17v43.06l-10.17,10.03h-1.95v24.11h12.12Zm-12.68-74.69h-29.68v37.9h29.68v-37.9Z"
            fill="#0a7f3a" />
    </g>
</svg>